<svg version="1.1" id="Layer_1" xmlns="http://www.w3.org/2000/svg" xmlns:xlink="http://www.w3.org/1999/xlink" x="0px" y="0px"
	 width="100%" viewBox="0 0 603 219" enable-background="new 0 0 603 219" xml:space="preserve">
<path fill="#FEFFFF" opacity="1.000000" stroke="none" 
	d="
M427.000000,220.000000 
	C284.709808,220.000000 142.919601,220.000000 1.064698,220.000000 
	C1.064698,147.065384 1.064698,74.130692 1.064698,1.097997 
	C201.999985,1.097997 402.999969,1.097997 603.973022,1.097997 
	C603.973022,74.080322 603.973022,147.040161 603.973022,220.000000 
	C545.130737,220.000000 486.315369,220.000000 427.000000,220.000000 
M173.001083,151.001099 
	C173.001083,151.001099 173.018341,150.965179 173.341263,151.630417 
	C178.460785,152.370071 183.578415,153.541016 188.701111,153.563705 
	C190.081696,153.569839 191.989151,150.248306 192.642700,148.140457 
	C192.951736,147.143799 190.873703,145.406982 189.795837,143.211044 
	C185.943115,134.843140 186.800400,125.938248 186.809631,117.127083 
	C186.813614,113.320869 186.924759,109.505058 186.704468,105.710022 
	C185.845917,90.920021 176.259033,79.232681 162.455414,77.451836 
	C154.965164,76.485489 147.208740,76.844650 139.639343,77.447105 
	C132.743759,77.995941 130.520737,80.675858 130.425919,86.861015 
	C130.385925,89.470398 130.393097,92.532417 131.671799,94.582039 
	C132.931091,96.600578 135.826523,97.598396 138.142654,99.136078 
	C137.570404,99.532906 136.696884,100.231216 135.740738,100.787476 
	C125.307518,106.857285 121.010193,116.203827 122.905350,128.083954 
	C124.693237,139.291565 131.931519,145.385223 142.304657,149.684921 
	C151.278503,154.460571 160.223038,154.418274 169.818771,149.693527 
	C170.485016,149.914108 171.151276,150.134705 172.117065,150.736053 
	C172.383255,150.961334 172.687393,151.040131 173.001083,151.001099 
M286.008362,147.982742 
	C286.008362,147.982742 286.000305,147.911316 286.375092,148.523621 
	C293.394714,152.409866 301.084290,152.834732 308.862396,153.039185 
	C313.621124,153.164246 318.587891,152.644577 319.880219,147.617355 
	C321.033661,143.130096 321.421997,137.834106 316.955597,133.242096 
	C315.374878,126.790634 313.632141,125.661293 307.177673,125.006592 
	C302.386597,124.520622 297.685944,123.143059 293.015350,121.378670 
	C294.706482,110.857002 302.518677,107.763474 311.529785,106.358208 
	C315.035248,105.811546 318.112396,105.068954 318.999908,101.083267 
	C320.051544,96.360703 321.216949,91.587967 316.593658,87.082962 
	C314.988312,80.356155 313.523682,78.866234 306.828827,78.899307 
	C302.039703,78.922966 297.145569,79.243401 292.487427,80.280762 
	C276.773254,83.780281 265.671173,96.184258 264.188507,111.326859 
	C262.455811,129.023071 268.540924,140.000763 284.393158,147.567520 
	C284.953583,147.696472 285.514008,147.825409 286.008362,147.982742 
M560.973145,97.487579 
	C560.672485,96.985367 560.371765,96.483154 559.805481,95.304932 
	C558.917114,93.344604 558.256165,91.236656 557.097595,89.451744 
	C553.672791,84.175636 546.574585,81.961472 539.765747,83.821365 
	C534.783508,85.182312 532.888062,87.812355 532.655945,95.475143 
	C532.419434,103.283463 532.861511,111.110023 532.862000,118.928604 
	C532.862366,124.841652 530.182861,127.157211 524.069641,125.931099 
	C524.347778,117.655663 524.972290,109.369911 524.726379,101.110069 
	C524.633545,97.990593 522.528687,94.931015 521.128540,91.111984 
	C519.601440,88.723953 518.614319,85.102699 516.455444,84.157455 
	C506.099548,79.623077 494.770844,86.727905 494.053101,97.984726 
	C493.555939,105.781921 493.321259,113.629715 493.586517,121.433922 
	C494.009277,133.872299 498.050140,144.319275 511.436951,149.530045 
	C520.208313,155.238052 528.335693,152.688263 537.057190,147.701965 
	C538.648193,147.881012 540.239197,148.060074 541.935303,149.039658 
	C542.119751,149.496902 542.177307,150.210632 542.507202,150.373962 
	C551.468201,154.810165 563.532593,148.054977 563.863953,138.102524 
	C564.212402,127.636528 564.162964,117.142426 563.802673,106.677299 
	C563.702942,103.780014 561.877441,100.942146 560.954895,97.977180 
	C560.954895,97.977180 560.864014,98.095291 560.973145,97.487579 
M235.809311,126.199188 
	C235.809311,120.602631 235.809311,115.006073 235.809311,109.044525 
	C238.755997,108.848190 241.720444,108.761368 244.656403,108.425499 
	C247.925171,108.051559 251.965866,108.066315 252.679779,103.985085 
	C253.416199,99.775208 254.734421,94.997635 250.037766,90.961288 
	C248.323288,84.703873 246.059967,82.849579 239.652939,82.180054 
	C237.138443,81.917290 234.652786,81.378441 231.987778,80.937843 
	C233.904968,76.316505 229.215500,65.858215 224.845245,65.295258 
	C220.221054,64.699577 214.847687,64.364967 210.793625,66.158630 
	C204.186005,69.082062 208.269623,76.639114 206.403168,81.671761 
	C205.991425,81.813309 205.837784,81.897247 205.676239,81.917206 
	C197.242310,82.959427 194.995621,84.676704 193.939102,90.896637 
	C192.634430,98.577454 193.973343,101.571312 201.847260,105.057465 
	C206.032684,106.910530 207.482941,109.281822 207.185928,113.719551 
	C206.842606,118.849197 207.064865,124.033943 207.310959,129.181885 
	C207.713379,137.600433 211.084366,144.242645 219.156464,147.883911 
	C220.503204,148.491394 221.725327,149.375107 223.371262,150.744400 
	C231.157440,153.908646 239.106445,154.363281 247.218536,152.193329 
	C255.598740,149.951675 257.182953,145.234894 251.982300,136.719818 
	C249.890427,128.362778 244.653397,125.229645 236.294678,127.264503 
	C236.151306,127.299408 235.975601,127.201500 235.809311,126.199188 
M56.180882,160.990051 
	C63.699451,165.654816 71.706535,161.417038 71.874260,152.526291 
	C72.038925,143.797348 71.910149,135.062866 71.910149,126.609505 
	C72.942520,126.229240 73.241158,126.035545 73.548531,126.020531 
	C74.873032,125.955811 76.200241,125.948555 77.526199,125.911308 
	C88.892784,125.592026 98.446434,121.437561 105.888161,112.664993 
	C113.225235,104.015778 114.273315,90.666641 107.912941,82.176865 
	C101.857071,69.661552 91.599571,62.762638 78.245193,60.049934 
	C58.396133,56.017952 45.406769,66.310036 45.282059,86.437653 
	C45.154041,107.099075 45.286270,127.762527 45.384094,148.424713 
	C45.422077,156.447372 47.737095,159.044357 56.180882,160.990051 
M477.399170,97.571106 
	C472.513977,91.432175 465.704254,89.132141 458.818390,91.487579 
	C451.781128,93.894775 452.367279,100.049942 452.273651,105.657791 
	C452.156891,112.651947 452.276794,119.653465 452.451630,126.647873 
	C452.566498,131.245377 450.573517,133.889206 445.934357,133.629028 
	C445.645721,131.347748 445.071899,129.060287 445.121216,126.786331 
	C445.278717,119.520203 445.911713,112.257263 445.857117,104.996880 
	C445.832214,101.686287 445.592651,97.767715 440.500885,96.446564 
	C439.357086,94.880600 438.552002,92.705986 437.013275,91.849693 
	C428.471802,87.096367 415.032745,93.379997 414.215485,103.144493 
	C413.319031,113.855026 413.720795,124.705132 414.112732,135.474182 
	C414.233948,138.803955 415.766937,142.279419 417.353699,145.323181 
	C422.952057,156.062119 435.562683,159.992874 446.427612,154.661865 
	C448.473633,153.657974 450.501556,152.617203 452.537872,151.593445 
	C452.530090,152.175232 452.522339,152.757034 452.514587,153.338821 
	C456.031219,154.109680 459.547882,154.880539 463.594177,156.113358 
	C474.540222,159.388641 484.670654,153.736069 484.915894,143.883514 
	C485.188599,132.926590 485.270905,121.945534 484.824738,110.999916 
	C484.653015,106.786591 484.047028,101.956940 478.769562,99.750313 
	C478.769562,99.750313 478.764771,99.460915 478.731293,98.851181 
	C478.447784,98.578499 478.164276,98.305824 477.399170,97.571106 
M374.171814,114.968582 
	C374.181824,124.902718 374.084717,134.838516 374.238342,144.770432 
	C374.346313,151.750839 376.422913,154.002823 383.356323,155.757050 
	C384.097809,156.406799 384.733429,157.344315 385.597076,157.661896 
	C394.505493,160.937851 404.593018,154.396271 404.915497,144.804031 
	C405.238739,135.189346 405.356781,125.530029 404.761719,115.940094 
	C404.509766,111.879372 402.207031,107.945900 400.435822,103.382217 
	C397.879486,94.212814 391.465607,89.406761 382.330322,89.286072 
	C376.896606,89.214279 371.436707,91.125313 365.980103,91.188843 
	C366.000031,88.064690 366.413513,84.877945 365.929260,81.834000 
	C365.445038,78.790474 364.063080,75.889771 362.872589,72.218681 
	C361.955444,67.844193 359.988129,64.444717 355.137177,63.530533 
	C345.583374,61.730083 338.330383,65.585464 337.125916,75.221115 
	C335.421356,88.857613 334.934937,102.692482 334.737457,116.454185 
	C334.616516,124.881699 335.877045,133.345062 336.766693,141.765976 
	C337.476715,148.486877 340.835754,153.239410 348.198242,155.488800 
	C352.607544,158.752335 357.677368,159.114655 362.355682,157.099731 
	C367.047882,155.078857 365.899231,150.103271 365.952423,146.052933 
	C366.037720,139.557205 366.298706,133.035461 365.848907,126.568993 
	C365.399200,120.103264 367.720215,115.961769 374.171814,114.968582 
z"/>
<path fill="#5A77FC" opacity="1.000000" stroke="none" 
	d="
M365.988556,92.144905 
	C371.436707,91.125313 376.896606,89.214279 382.330322,89.286072 
	C391.465607,89.406761 397.879486,94.212814 400.645111,104.107178 
	C401.283630,114.636574 402.014832,124.439278 402.070496,134.245834 
	C402.151672,148.543610 397.285309,153.626160 383.018890,155.101074 
	C376.422913,154.002823 374.346313,151.750839 374.238342,144.770432 
	C374.084717,134.838516 374.181824,124.902718 374.041260,114.132477 
	C371.792938,112.627045 369.512329,111.112717 367.594696,111.482178 
	C364.554871,112.067856 362.581909,114.381119 362.652679,118.003990 
	C362.814911,126.307770 362.924927,134.617172 362.804413,142.920639 
	C362.669861,152.191116 359.450867,155.131119 350.280853,154.853394 
	C349.452393,154.828293 348.623260,154.825363 347.794434,154.812149 
	C340.835754,153.239410 337.476715,148.486877 336.766693,141.765976 
	C335.877045,133.345062 334.616516,124.881699 334.737457,116.454185 
	C334.934937,102.692482 335.421356,88.857613 337.125916,75.221115 
	C338.330383,65.585464 345.583374,61.730083 355.137177,63.530533 
	C359.988129,64.444717 361.955444,67.844193 362.934814,73.047874 
	C362.949860,79.196564 362.850647,84.516365 362.882843,89.835381 
	C362.894623,91.776642 363.078217,93.906647 365.988556,92.144905 
M365.147278,97.472504 
	C359.820251,97.255157 358.341522,95.555038 358.079285,89.135643 
	C357.831543,83.071335 357.665924,77.003670 357.180573,70.177811 
	C350.995483,65.441963 342.395782,68.155357 341.056152,76.993477 
	C337.996552,97.179085 338.164429,117.370934 340.787811,137.539307 
	C341.271729,141.259567 343.418945,144.763474 345.388336,148.855225 
	C346.332062,149.179077 347.252655,149.629578 348.223145,149.806839 
	C356.367157,151.294342 358.073730,149.892517 358.086914,141.584641 
	C358.099579,133.585678 357.923981,125.585701 358.001526,117.587822 
	C358.058533,111.705650 363.072021,106.722748 369.141785,106.204941 
	C374.464508,105.750862 377.547699,108.484764 379.072723,116.004570 
	C379.023010,125.403954 378.802338,134.808090 379.064209,144.198792 
	C379.118164,146.133652 380.972015,148.018341 382.850800,150.065826 
	C393.537415,149.878586 397.037872,146.791199 397.327423,136.235443 
	C397.563660,127.622375 397.649597,118.936508 396.765106,110.390251 
	C396.319916,106.088966 393.569458,102.026253 391.546600,97.267975 
	C388.362335,96.140106 385.111816,93.932732 382.008453,94.123169 
	C376.594269,94.455421 371.270691,96.264023 365.147278,97.472504 
z"/>
<path fill="#5B77FF" opacity="1.000000" stroke="none" 
	d="
M478.764771,99.460922 
	C478.764771,99.460915 478.769562,99.750313 478.854614,100.281891 
	C481.987152,114.899704 481.219360,129.095459 479.845276,143.254150 
	C479.302856,148.843582 475.608490,152.498260 470.311005,154.228088 
	C467.988281,154.986557 465.485535,155.193832 463.064545,155.651398 
	C459.547882,154.880539 456.031219,154.109680 452.514587,153.338821 
	C452.522339,152.757034 452.530090,152.175232 452.537872,151.593445 
	C450.501556,152.617203 448.473633,153.657974 446.427612,154.661865 
	C435.562683,159.992874 422.952057,156.062119 417.353699,145.323181 
	C415.766937,142.279419 414.233948,138.803955 414.112732,135.474182 
	C413.720795,124.705132 413.319031,113.855026 414.215485,103.144493 
	C415.032745,93.379997 428.471802,87.096367 437.013275,91.849693 
	C438.552002,92.705986 439.357086,94.880600 440.691895,97.207474 
	C440.911072,108.074623 440.861786,118.182022 441.013092,128.286423 
	C441.060394,131.445816 441.271851,134.900726 445.993622,134.526413 
	C450.573517,133.889206 452.566498,131.245377 452.451630,126.647873 
	C452.276794,119.653465 452.156891,112.651947 452.273651,105.657791 
	C452.367279,100.049942 451.781128,93.894775 458.818390,91.487579 
	C465.704254,89.132141 472.513977,91.432175 477.704773,98.085724 
	C478.261841,98.887207 478.513306,99.174065 478.764771,99.460922 
M468.820587,96.334579 
	C458.738434,94.187515 457.000854,95.545067 456.976227,105.770714 
	C456.960724,112.217964 456.735321,118.688324 457.189880,125.106834 
	C457.700012,132.310013 454.679626,136.784943 447.387543,139.148376 
	C440.798248,139.668304 437.680054,137.848770 436.876526,131.524414 
	C436.151367,125.816811 436.777527,119.949646 436.555542,114.162529 
	C436.334778,108.406715 435.799988,102.662941 434.819092,96.217690 
	C422.670532,94.066154 418.324860,97.470688 418.061035,109.564667 
	C417.912720,116.361916 417.802307,123.172607 418.061096,129.962524 
	C418.311218,136.527008 419.770905,142.790192 425.289948,148.071487 
	C431.571564,153.002991 438.232178,153.439102 445.285797,149.838623 
	C447.644104,148.634842 450.007324,147.310944 452.526184,146.606171 
	C453.782074,146.254745 456.268677,146.733658 456.703308,147.593140 
	C459.578125,153.277924 464.124237,150.539688 468.037476,149.993439 
	C472.023041,149.437088 475.010193,146.864532 475.075226,142.736832 
	C475.275970,129.999969 475.366913,117.242477 474.768127,104.527473 
	C474.645264,101.918022 471.346100,99.458153 468.820587,96.334579 
z"/>
<path fill="#5776FF" opacity="1.000000" stroke="none" 
	d="
M171.817520,150.355286 
	C171.151276,150.134705 170.485016,149.914108 169.201080,149.421097 
	C166.784698,148.464539 164.467682,146.700562 163.272720,147.274155 
	C156.292221,150.624802 149.150208,149.980896 141.913071,149.083908 
	C131.931519,145.385223 124.693237,139.291565 122.905350,128.083954 
	C121.010193,116.203827 125.307518,106.857285 135.740738,100.787476 
	C136.696884,100.231216 137.570404,99.532906 138.142654,99.136078 
	C135.826523,97.598396 132.931091,96.600578 131.671799,94.582039 
	C130.393097,92.532417 130.385925,89.470398 130.425919,86.861015 
	C130.520737,80.675858 132.743759,77.995941 139.639343,77.447105 
	C147.208740,76.844650 154.965164,76.485489 162.455414,77.451836 
	C176.259033,79.232681 185.845917,90.920021 186.704468,105.710022 
	C186.924759,109.505058 186.813614,113.320869 186.809631,117.127083 
	C186.800400,125.938248 185.943115,134.843140 189.599274,143.858444 
	C188.526489,149.242477 185.297989,150.881561 180.893829,150.937317 
	C178.268967,150.970551 175.643524,150.957458 173.018341,150.965179 
	C173.018341,150.965179 173.001083,151.001099 172.886642,150.769318 
	C172.453979,150.476776 172.135742,150.416031 171.817520,150.355286 
M129.971191,134.466187 
	C129.971191,134.466187 130.141251,134.902512 130.310211,135.553818 
	C138.975342,145.260681 149.871429,147.623886 161.930222,142.606979 
	C163.330475,142.024414 165.709717,141.665451 166.630981,142.423340 
	C171.027985,146.040680 176.088867,146.298233 181.281265,145.946457 
	C182.492813,145.864380 184.278229,144.854446 184.611633,143.869370 
	C184.940659,142.897217 183.797638,141.400803 183.241699,140.160736 
	C182.161469,137.751221 180.176346,135.391510 180.087936,132.955917 
	C179.737717,123.307137 180.254181,113.626869 179.902634,103.978188 
	C179.647034,96.962433 178.472260,90.006516 170.977936,85.395691 
	C160.306564,79.388550 148.957199,80.382133 137.667633,82.657288 
	C136.433029,82.906097 135.490707,86.543839 135.156479,88.723740 
	C134.876312,90.551003 134.357269,93.465073 138.978439,93.063148 
	C143.593307,93.059807 148.221100,92.833237 152.820358,93.099579 
	C162.402878,93.654495 167.149445,98.414253 167.004868,106.996513 
	C167.004868,106.996513 166.976501,107.028923 166.346909,107.000114 
	C165.581833,106.664803 164.816772,106.329491 163.624695,105.415146 
	C157.273926,101.438324 150.415848,101.344017 143.395798,102.886238 
	C129.202820,106.004265 122.601128,121.401283 129.994141,134.000275 
	C129.994141,134.000275 129.926605,134.000015 129.971191,134.466187 
z"/>
<path fill="#5875FF" opacity="1.000000" stroke="none" 
	d="
M524.122620,126.799362 
	C530.182861,127.157211 532.862366,124.841652 532.862000,118.928604 
	C532.861511,111.110023 532.419434,103.283463 532.655945,95.475143 
	C532.888062,87.812355 534.783508,85.182312 539.765747,83.821365 
	C546.574585,81.961472 553.672791,84.175636 557.097595,89.451744 
	C558.256165,91.236656 558.917114,93.344604 559.918091,95.946671 
	C560.308411,97.090698 560.586243,97.592995 560.864014,98.095291 
	C560.864014,98.095291 560.954895,97.977180 560.834473,98.487411 
	C560.758423,109.611519 561.074829,120.233162 560.771729,130.837112 
	C560.460327,141.732895 555.484863,146.893478 545.288696,147.906693 
	C544.136230,148.021210 542.983032,148.128494 541.830200,148.239120 
	C540.239197,148.060074 538.648193,147.881012 536.422852,147.413361 
	C534.852417,146.044205 533.916382,144.963623 532.632935,143.482056 
	C526.165710,148.562775 518.846252,149.908340 511.011230,148.963089 
	C498.050140,144.319275 494.009277,133.872299 493.586517,121.433922 
	C493.321259,113.629715 493.555939,105.781921 494.053101,97.984726 
	C494.770844,86.727905 506.099548,79.623077 516.455444,84.157455 
	C518.614319,85.102699 519.601440,88.723953 521.165405,91.954132 
	C521.150940,101.735397 520.882507,110.682014 521.190918,119.608704 
	C521.274780,122.036453 523.097839,124.404121 524.122620,126.799362 
M516.121765,90.264862 
	C513.393494,85.765793 509.277313,88.258514 505.852783,88.543976 
	C501.727936,88.887825 499.112457,91.968773 499.007874,95.952263 
	C498.725647,106.698875 498.648834,117.471085 499.129059,128.204575 
	C499.264252,131.225555 501.604401,134.147873 503.151917,137.758041 
	C506.230743,142.196152 510.693481,144.858551 515.851379,144.365768 
	C520.452026,143.926239 524.930908,141.870422 529.379211,140.290436 
	C532.762024,139.088943 536.162842,136.542969 538.230225,142.016846 
	C538.437866,142.566483 539.517578,142.957825 540.256836,143.109589 
	C549.514221,145.010117 555.811890,140.234192 555.994995,130.914307 
	C556.181274,121.433548 556.411255,111.925941 555.877563,102.472137 
	C555.657837,98.580582 553.492798,94.798843 551.827759,90.315536 
	C547.901184,89.710480 543.690063,88.031776 540.171204,88.964676 
	C538.475525,89.414215 537.438232,94.743675 537.238342,97.934547 
	C536.834961,104.375504 537.224487,110.864975 537.256348,117.334587 
	C537.303162,126.856743 535.284363,129.475967 525.224182,131.950302 
	C520.357239,131.928268 517.955383,128.845886 517.193726,124.646027 
	C516.524780,120.957405 516.627808,117.115791 516.536255,113.338203 
	C516.356750,105.929024 516.278992,98.517380 516.121765,90.264862 
z"/>
<path fill="#5877FF" opacity="1.000000" stroke="none" 
	d="
M55.666000,160.499908 
	C47.737095,159.044357 45.422077,156.447372 45.384094,148.424713 
	C45.286270,127.762527 45.154041,107.099075 45.282059,86.437653 
	C45.406769,66.310036 58.396133,56.017952 78.245193,60.049934 
	C91.599571,62.762638 101.857071,69.661552 107.986099,82.931808 
	C110.445007,95.302559 106.611977,104.938400 98.432289,113.029137 
	C90.137115,121.234077 79.598251,123.564117 68.046776,123.300812 
	C68.046776,131.257645 68.050682,138.569687 68.045822,145.881729 
	C68.039238,155.794479 65.378990,158.932098 55.666000,160.499908 
M83.849854,66.481934 
	C81.140778,65.722008 78.475380,64.688400 75.715324,64.247826 
	C60.960049,61.892532 50.361908,69.186523 50.141205,82.573143 
	C49.771679,104.986176 49.956921,127.410835 50.218204,149.826996 
	C50.238674,151.582962 52.677895,153.310730 54.465958,155.578766 
	C60.194675,155.732315 62.996132,153.329590 63.060143,148.020432 
	C63.132263,142.038498 63.075344,136.055008 63.074867,130.072205 
	C63.074554,126.172455 63.074810,122.272713 63.074810,118.278946 
	C64.759880,118.202370 65.605392,118.007408 66.388306,118.151825 
	C78.342110,120.356819 88.281944,116.374359 96.542152,107.958565 
	C102.573967,101.813148 105.615082,94.299683 103.283203,85.710884 
	C100.661095,76.053116 93.983032,69.986923 83.849854,66.481934 
z"/>
<path fill="#5577FB" opacity="1.000000" stroke="none" 
	d="
M223.005035,150.131165 
	C221.725327,149.375107 220.503204,148.491394 219.156464,147.883911 
	C211.084366,144.242645 207.713379,137.600433 207.310959,129.181885 
	C207.064865,124.033943 206.842606,118.849197 207.185928,113.719551 
	C207.482941,109.281822 206.032684,106.910530 201.847260,105.057465 
	C193.973343,101.571312 192.634430,98.577454 193.939102,90.896637 
	C194.995621,84.676704 197.242310,82.959427 205.676239,81.917206 
	C205.837784,81.897247 205.991425,81.813309 206.403168,81.671761 
	C208.269623,76.639114 204.186005,69.082062 210.793625,66.158630 
	C214.847687,64.364967 220.221054,64.699577 224.845245,65.295258 
	C229.215500,65.858215 233.904968,76.316505 231.987778,80.937843 
	C234.652786,81.378441 237.138443,81.917290 239.652939,82.180054 
	C246.059967,82.849579 248.323288,84.703873 250.042358,91.768806 
	C251.313217,106.383995 240.814835,104.805801 231.883148,105.492485 
	C232.221436,111.807236 232.357819,117.586945 232.964462,123.316864 
	C233.109314,124.685020 234.822906,125.887100 235.814987,127.165565 
	C235.975601,127.201500 236.151306,127.299408 236.294678,127.264503 
	C244.653397,125.229645 249.890427,128.362778 251.845947,137.327057 
	C251.818726,146.362106 246.125183,148.683014 239.277130,149.363586 
	C233.880966,149.899872 228.431061,149.895432 223.005035,150.131165 
M215.046539,138.373734 
	C215.198837,138.620880 215.364273,138.858902 215.869080,139.729507 
	C223.074921,147.297241 231.931137,146.432877 240.874710,144.414413 
	C247.498535,142.919495 247.993042,141.717667 245.857132,134.256622 
	C243.943756,128.829391 239.954025,132.584305 236.124939,132.128525 
	C231.192184,132.035431 228.702591,128.892380 228.467926,124.591545 
	C228.048203,116.898468 228.349686,109.166039 228.349686,100.735435 
	C231.274155,100.735435 234.222641,100.901199 237.146683,100.704063 
	C245.606689,100.133698 246.721497,98.514778 244.678589,89.310020 
	C241.254715,88.506645 237.830841,87.703278 233.650787,86.534348 
	C231.566238,86.278877 229.481674,86.023407 227.479614,85.778046 
	C226.867432,81.024345 226.299789,76.616348 225.639374,71.596848 
	C222.529327,67.189362 217.978363,68.670296 214.323578,69.771835 
	C212.756912,70.244019 211.786789,74.145508 211.374908,76.626526 
	C210.876511,79.628578 211.256729,82.776497 211.256729,85.807617 
	C208.158356,86.216301 205.643951,86.053055 203.603683,86.958336 
	C201.622711,87.837303 199.210632,89.525124 198.631378,91.372948 
	C197.721298,94.276039 196.732193,98.092384 202.098602,99.969498 
	C205.155762,100.381584 208.212906,100.793671 211.440674,101.228752 
	C211.625717,103.744797 211.793518,106.026260 211.842377,109.195786 
	C211.881531,115.804428 211.611954,122.435814 212.096420,129.011658 
	C212.322174,132.075974 214.009583,135.032623 214.968140,138.015793 
	C214.968140,138.015793 214.979599,137.946793 215.046539,138.373734 
z"/>
<path fill="#5A77FD" opacity="1.000000" stroke="none" 
	d="
M284.023773,147.110138 
	C268.540924,140.000763 262.455811,129.023071 264.188507,111.326859 
	C265.671173,96.184258 276.773254,83.780281 292.487427,80.280762 
	C297.145569,79.243401 302.039703,78.922966 306.828827,78.899307 
	C313.523682,78.866234 314.988312,80.356155 316.528870,87.802902 
	C316.418854,89.185143 316.348480,89.846832 316.332275,90.509850 
	C316.103607,99.884590 314.504028,101.360809 305.379517,103.257149 
	C301.444733,104.074905 297.383972,105.794350 294.156616,108.162094 
	C289.057007,111.903397 288.856995,118.345612 292.945007,122.162643 
	C297.685944,123.143059 302.386597,124.520622 307.177673,125.006592 
	C313.632141,125.661293 315.374878,126.790634 317.007263,134.066803 
	C318.884552,146.877991 312.733887,150.082138 302.318481,149.718582 
	C296.864716,149.528229 291.438812,148.539490 286.000305,147.911316 
	C286.000305,147.911316 286.008362,147.982742 285.882416,147.714661 
	C285.178894,147.334442 284.601349,147.222290 284.023773,147.110138 
M295.435913,128.641235 
	C290.200562,126.978714 285.895569,124.218201 285.562561,118.172554 
	C285.197876,111.551682 287.689880,105.890465 293.675690,102.748825 
	C297.564667,100.707695 301.965088,99.308456 306.299103,98.542747 
	C310.497711,97.800972 312.021576,95.746918 311.900391,91.858772 
	C311.848816,90.203346 311.748474,88.549438 311.714966,86.186684 
	C310.355408,85.211273 309.011292,83.414185 307.633911,83.388329 
	C294.724854,83.145988 282.657776,85.708183 274.620789,96.946274 
	C266.791473,107.893982 266.966919,119.788895 272.181030,132.540115 
	C281.091888,144.354599 293.887878,145.402328 307.109009,144.930756 
	C311.276825,144.782104 313.345795,142.170654 312.769409,137.863770 
	C312.549988,136.224228 312.202728,134.601791 311.900116,132.185715 
	C310.816467,131.417206 309.800354,130.124405 308.637024,129.974518 
	C304.470490,129.437698 300.254059,129.287979 295.435913,128.641235 
z"/>
<path fill="#8BB2F0" opacity="1.000000" stroke="none" 
	d="
M55.923439,160.744980 
	C65.378990,158.932098 68.039238,155.794479 68.045822,145.881729 
	C68.050682,138.569687 68.046776,131.257645 68.046776,123.300812 
	C79.598251,123.564117 90.137115,121.234077 98.432289,113.029137 
	C106.611977,104.938400 110.445007,95.302559 108.098175,83.258781 
	C114.273315,90.666641 113.225235,104.015778 105.888161,112.664993 
	C98.446434,121.437561 88.892784,125.592026 77.526199,125.911308 
	C76.200241,125.948555 74.873032,125.955811 73.548531,126.020531 
	C73.241158,126.035545 72.942520,126.229240 71.910149,126.609505 
	C71.910149,135.062866 72.038925,143.797348 71.874260,152.526291 
	C71.706535,161.417038 63.699451,165.654816 55.923439,160.744980 
z"/>
<path fill="#EBD1F8" opacity="1.000000" stroke="none" 
	d="
M463.329346,155.882370 
	C465.485535,155.193832 467.988281,154.986557 470.311005,154.228088 
	C475.608490,152.498260 479.302856,148.843582 479.845276,143.254150 
	C481.219360,129.095459 481.987152,114.899704 478.938934,100.399521 
	C484.047028,101.956940 484.653015,106.786591 484.824738,110.999916 
	C485.270905,121.945534 485.188599,132.926590 484.915894,143.883514 
	C484.670654,153.736069 474.540222,159.388641 463.329346,155.882370 
z"/>
<path fill="#FCDEB0" opacity="1.000000" stroke="none" 
	d="
M347.996338,155.150482 
	C348.623260,154.825363 349.452393,154.828293 350.280853,154.853394 
	C359.450867,155.131119 362.669861,152.191116 362.804413,142.920639 
	C362.924927,134.617172 362.814911,126.307770 362.652679,118.003990 
	C362.581909,114.381119 364.554871,112.067856 367.594696,111.482178 
	C369.512329,111.112717 371.792938,112.627045 373.921387,113.680161 
	C367.720215,115.961769 365.399200,120.103264 365.848907,126.568993 
	C366.298706,133.035461 366.037720,139.557205 365.952423,146.052933 
	C365.899231,150.103271 367.047882,155.078857 362.355682,157.099731 
	C357.677368,159.114655 352.607544,158.752335 347.996338,155.150482 
z"/>
<path fill="#F9DCB0" opacity="1.000000" stroke="none" 
	d="
M383.187622,155.429062 
	C397.285309,153.626160 402.151672,148.543610 402.070496,134.245834 
	C402.014832,124.439278 401.283630,114.636574 400.845398,104.393372 
	C402.207031,107.945900 404.509766,111.879372 404.761719,115.940094 
	C405.356781,125.530029 405.238739,135.189346 404.915497,144.804031 
	C404.593018,154.396271 394.505493,160.937851 385.597076,157.661896 
	C384.733429,157.344315 384.097809,156.406799 383.187622,155.429062 
z"/>
<path fill="#E2B3F4" opacity="1.000000" stroke="none" 
	d="
M541.882751,148.639389 
	C542.983032,148.128494 544.136230,148.021210 545.288696,147.906693 
	C555.484863,146.893478 560.460327,141.732895 560.771729,130.837112 
	C561.074829,120.233162 560.758423,109.611519 560.778809,98.537331 
	C561.877441,100.942146 563.702942,103.780014 563.802673,106.677299 
	C564.162964,117.142426 564.212402,127.636528 563.863953,138.102524 
	C563.532593,148.054977 551.468201,154.810165 542.507202,150.373962 
	C542.177307,150.210632 542.119751,149.496902 541.882751,148.639389 
z"/>
<path fill="#F7EAB1" opacity="1.000000" stroke="none" 
	d="
M292.980164,121.770653 
	C288.856995,118.345612 289.057007,111.903397 294.156616,108.162094 
	C297.383972,105.794350 301.444733,104.074905 305.379517,103.257149 
	C314.504028,101.360809 316.103607,99.884590 316.332275,90.509850 
	C316.348480,89.846832 316.418854,89.185143 316.623566,88.143944 
	C321.216949,91.587967 320.051544,96.360703 318.999908,101.083267 
	C318.112396,105.068954 315.035248,105.811546 311.529785,106.358208 
	C302.518677,107.763474 294.706482,110.857002 292.980164,121.770653 
z"/>
<path fill="#20DA6D" opacity="1.000000" stroke="none" 
	d="
M235.812149,126.682373 
	C234.822906,125.887100 233.109314,124.685020 232.964462,123.316864 
	C232.357819,117.586945 232.221436,111.807236 231.883148,105.492485 
	C240.814835,104.805801 251.313217,106.383995 250.106369,92.129021 
	C254.734421,94.997635 253.416199,99.775208 252.679779,103.985085 
	C251.965866,108.066315 247.925171,108.051559 244.656403,108.425499 
	C241.720444,108.761368 238.755997,108.848190 235.809311,109.044525 
	C235.809311,115.006073 235.809311,120.602631 235.812149,126.682373 
z"/>
<path fill="#EBD1F8" opacity="1.000000" stroke="none" 
	d="
M445.963989,134.077728 
	C441.271851,134.900726 441.060394,131.445816 441.013092,128.286423 
	C440.861786,118.182022 440.911072,108.074623 440.885376,97.502258 
	C445.592651,97.767715 445.832214,101.686287 445.857117,104.996880 
	C445.911713,112.257263 445.278717,119.520203 445.121216,126.786331 
	C445.071899,129.060287 445.645721,131.347748 445.963989,134.077728 
z"/>
<path fill="#1FDD69" opacity="1.000000" stroke="none" 
	d="
M223.188141,150.437775 
	C228.431061,149.895432 233.880966,149.899872 239.277130,149.363586 
	C246.125183,148.683014 251.818726,146.362106 251.909286,137.768707 
	C257.182953,145.234894 255.598740,149.951675 247.218536,152.193329 
	C239.106445,154.363281 231.157440,153.908646 223.188141,150.437775 
z"/>
<path fill="#F7EAB1" opacity="1.000000" stroke="none" 
	d="
M286.187683,148.217468 
	C291.438812,148.539490 296.864716,149.528229 302.318481,149.718582 
	C312.733887,150.082138 318.884552,146.877991 317.099365,134.438477 
	C321.421997,137.834106 321.033661,143.130096 319.880219,147.617355 
	C318.587891,152.644577 313.621124,153.164246 308.862396,153.039185 
	C301.084290,152.834732 293.394714,152.409866 286.187683,148.217468 
z"/>
<path fill="#D9B0F4" opacity="1.000000" stroke="none" 
	d="
M524.096130,126.365234 
	C523.097839,124.404121 521.274780,122.036453 521.190918,119.608704 
	C520.882507,110.682014 521.150940,101.735397 521.271606,92.320206 
	C522.528687,94.931015 524.633545,97.990593 524.726379,101.110069 
	C524.972290,109.369911 524.347778,117.655663 524.096130,126.365234 
z"/>
<path fill="#DEB2F4" opacity="1.000000" stroke="none" 
	d="
M511.224091,149.246567 
	C518.846252,149.908340 526.165710,148.562775 532.632935,143.482056 
	C533.916382,144.963623 534.852417,146.044205 536.026611,147.359314 
	C528.335693,152.688263 520.208313,155.238052 511.224091,149.246567 
z"/>
<path fill="#A0CFF9" opacity="1.000000" stroke="none" 
	d="
M142.108856,149.384415 
	C149.150208,149.980896 156.292221,150.624802 163.272720,147.274155 
	C164.467682,146.700562 166.784698,148.464539 168.860687,149.335114 
	C160.223038,154.418274 151.278503,154.460571 142.108856,149.384415 
z"/>
<path fill="#A0CFF9" opacity="1.000000" stroke="none" 
	d="
M173.179810,151.297791 
	C175.643524,150.957458 178.268967,150.970551 180.893829,150.937317 
	C185.297989,150.881561 188.526489,149.242477 189.639954,144.255676 
	C190.873703,145.406982 192.951736,147.143799 192.642700,148.140457 
	C191.989151,150.248306 190.081696,153.569839 188.701111,153.563705 
	C183.578415,153.541016 178.460785,152.370071 173.179810,151.297791 
z"/>
<path fill="#F9DCB0" opacity="1.000000" stroke="none" 
	d="
M365.984314,91.666870 
	C363.078217,93.906647 362.894623,91.776642 362.882843,89.835381 
	C362.850647,84.516365 362.949860,79.196564 363.035858,73.401764 
	C364.063080,75.889771 365.445038,78.790474 365.929260,81.834000 
	C366.413513,84.877945 366.000031,88.064690 365.984314,91.666870 
z"/>
<path fill="#E2B3F4" opacity="1.000000" stroke="none" 
	d="
M560.918579,97.791435 
	C560.586243,97.592995 560.308411,97.090698 560.050903,96.284676 
	C560.371765,96.483154 560.672485,96.985367 560.918579,97.791435 
z"/>
<path fill="#F7EAB1" opacity="1.000000" stroke="none" 
	d="
M284.208466,147.338837 
	C284.601349,147.222290 285.178894,147.334442 285.915466,147.700470 
	C285.514008,147.825409 284.953583,147.696472 284.208466,147.338837 
z"/>
<path fill="#EBD1F8" opacity="1.000000" stroke="none" 
	d="
M478.748047,99.156052 
	C478.513306,99.174065 478.261841,98.887207 477.945557,98.316742 
	C478.164276,98.305824 478.447784,98.578499 478.748047,99.156052 
z"/>
<path fill="#A0CFF9" opacity="1.000000" stroke="none" 
	d="
M171.967285,150.545670 
	C172.135742,150.416031 172.453979,150.476776 172.900848,150.754990 
	C172.687393,151.040131 172.383255,150.961334 171.967285,150.545670 
z"/>
<path fill="#FDDDAD" opacity="1.000000" stroke="none" 
	d="
M379.158630,115.086990 
	C377.547699,108.484764 374.464508,105.750862 369.141785,106.204941 
	C363.072021,106.722748 358.058533,111.705650 358.001526,117.587822 
	C357.923981,125.585701 358.099579,133.585678 358.086914,141.584641 
	C358.073730,149.892517 356.367157,151.294342 348.223145,149.806839 
	C347.252655,149.629578 346.332062,149.179077 345.024902,148.196045 
	C343.788391,140.174667 342.299438,132.822311 342.181763,125.448067 
	C341.989197,113.381569 341.894806,101.211349 343.242401,89.252029 
	C344.513672,77.970497 344.621796,72.337654 357.464203,70.937485 
	C357.665924,77.003670 357.831543,83.071335 358.079285,89.135643 
	C358.341522,95.555038 359.820251,97.255157 365.651062,97.839767 
	C367.646881,101.490608 370.122009,101.021042 372.762360,99.942833 
	C378.929016,97.424599 385.184845,95.712189 391.861450,97.855652 
	C393.569458,102.026253 396.319916,106.088966 396.765106,110.390251 
	C397.649597,118.936508 397.563660,127.622375 397.327423,136.235443 
	C397.037872,146.791199 393.537415,149.878586 382.423737,149.532944 
	C382.012695,140.196274 382.240295,131.384583 381.911652,122.593689 
	C381.816986,120.060692 380.120636,117.587570 379.158630,115.086990 
z"/>
<path fill="#F6F7FC" opacity="1.000000" stroke="none" 
	d="
M357.322388,70.557648 
	C344.621796,72.337654 344.513672,77.970497 343.242401,89.252029 
	C341.894806,101.211349 341.989197,113.381569 342.181763,125.448067 
	C342.299438,132.822311 343.788391,140.174667 344.729950,147.952057 
	C343.418945,144.763474 341.271729,141.259567 340.787811,137.539307 
	C338.164429,117.370934 337.996552,97.179085 341.056152,76.993477 
	C342.395782,68.155357 350.995483,65.441963 357.322388,70.557648 
z"/>
<path fill="#F6F7FC" opacity="1.000000" stroke="none" 
	d="
M379.115662,115.545776 
	C380.120636,117.587570 381.816986,120.060692 381.911652,122.593689 
	C382.240295,131.384583 382.012695,140.196274 381.996460,149.463104 
	C380.972015,148.018341 379.118164,146.133652 379.064209,144.198792 
	C378.802338,134.808090 379.023010,125.403954 379.115662,115.545776 
z"/>
<path fill="#F8F8FB" opacity="1.000000" stroke="none" 
	d="
M391.704041,97.561813 
	C385.184845,95.712189 378.929016,97.424599 372.762360,99.942833 
	C370.122009,101.021042 367.646881,101.490608 366.031982,97.830444 
	C371.270691,96.264023 376.594269,94.455421 382.008453,94.123169 
	C385.111816,93.932732 388.362335,96.140106 391.704041,97.561813 
z"/>
<path fill="#EED2F8" opacity="1.000000" stroke="none" 
	d="
M435.402863,96.913887 
	C435.799988,102.662941 436.334778,108.406715 436.555542,114.162529 
	C436.777527,119.949646 436.151367,125.816811 436.876526,131.524414 
	C437.680054,137.848770 440.798248,139.668304 447.981659,139.409378 
	C455.684479,141.959686 461.895905,137.590210 461.969452,130.121506 
	C462.052551,121.688057 461.964691,113.253075 461.995178,104.818924 
	C462.016907,98.803535 463.441132,97.344124 469.510986,96.929337 
	C471.346100,99.458153 474.645264,101.918022 474.768127,104.527473 
	C475.366913,117.242477 475.275970,129.999969 475.075226,142.736832 
	C475.010193,146.864532 472.023041,149.437088 468.037476,149.993439 
	C464.124237,150.539688 459.578125,153.277924 456.703308,147.593140 
	C456.268677,146.733658 453.782074,146.254745 452.526184,146.606171 
	C450.007324,147.310944 447.644104,148.634842 445.285797,149.838623 
	C438.232178,153.439102 431.571564,153.002991 425.128845,147.346985 
	C424.307220,143.067566 423.193115,139.527435 423.076477,135.954758 
	C422.797363,127.403732 422.964203,118.837303 422.994873,110.277252 
	C423.026459,101.465874 426.681244,97.556335 435.402863,96.913887 
z"/>
<path fill="#F9F8FF" opacity="1.000000" stroke="none" 
	d="
M469.165771,96.631958 
	C463.441132,97.344124 462.016907,98.803535 461.995178,104.818924 
	C461.964691,113.253075 462.052551,121.688057 461.969452,130.121506 
	C461.895905,137.590210 455.684479,141.959686 448.337524,139.428268 
	C454.679626,136.784943 457.700012,132.310013 457.189880,125.106834 
	C456.735321,118.688324 456.960724,112.217964 456.976227,105.770714 
	C457.000854,95.545067 458.738434,94.187515 469.165771,96.631958 
z"/>
<path fill="#FAFAFF" opacity="1.000000" stroke="none" 
	d="
M435.110962,96.565788 
	C426.681244,97.556335 423.026459,101.465874 422.994873,110.277252 
	C422.964203,118.837303 422.797363,127.403732 423.076477,135.954758 
	C423.193115,139.527435 424.307220,143.067566 424.953613,147.065643 
	C419.770905,142.790192 418.311218,136.527008 418.061096,129.962524 
	C417.802307,123.172607 417.912720,116.361916 418.061035,109.564667 
	C418.324860,97.470688 422.670532,94.066154 435.110962,96.565788 
z"/>
<path fill="#9DD0F8" opacity="1.000000" stroke="none" 
	d="
M164.051697,105.994186 
	C164.816772,106.329491 165.581833,106.664803 166.720947,107.162033 
	C167.198212,107.365570 167.301422,107.407181 167.404633,107.448799 
	C167.282288,107.288589 167.159943,107.128380 167.037598,106.968163 
	C167.149445,98.414253 162.402878,93.654495 152.820358,93.099579 
	C148.221100,92.833237 143.593307,93.059807 138.514862,92.655594 
	C137.934677,88.501511 139.633987,86.562500 143.434097,85.801849 
	C152.822098,83.922691 162.133240,84.331711 171.466324,85.982475 
	C178.472260,90.006516 179.647034,96.962433 179.902634,103.978188 
	C180.254181,113.626869 179.737717,123.307137 180.087936,132.955917 
	C180.176346,135.391510 182.161469,137.751221 183.241699,140.160736 
	C183.797638,141.400803 184.940659,142.897217 184.611633,143.869370 
	C184.278229,144.854446 182.492813,145.864380 181.281265,145.946457 
	C176.088867,146.298233 171.027985,146.040680 166.630981,142.423340 
	C165.709717,141.665451 163.330475,142.024414 161.930222,142.606979 
	C149.871429,147.623886 138.975342,145.260681 130.382538,135.129364 
	C130.278778,134.469940 130.102692,134.234970 129.926605,134.000015 
	C129.926605,134.000015 129.994141,134.000275 130.020996,133.576050 
	C130.049545,132.319839 130.058090,131.487823 130.051910,130.655914 
	C129.948318,116.692055 136.831375,108.198074 150.788803,105.925598 
	C155.091980,105.224983 159.624298,105.931801 164.051697,105.994186 
M164.956497,123.211876 
	C164.046494,116.443504 160.739349,113.796082 153.354568,113.924347 
	C147.377045,114.028175 143.441162,117.298302 143.033768,122.499390 
	C142.585388,128.223724 145.851105,132.100449 152.344757,134.024139 
	C155.623581,137.445618 159.700348,137.874573 163.514160,135.780350 
	C165.479752,134.701004 167.312515,132.048050 167.696167,129.843521 
	C167.999695,128.099258 166.002014,125.954529 164.956497,123.211876 
z"/>
<path fill="#F4F7FF" opacity="1.000000" stroke="none" 
	d="
M163.838196,105.704666 
	C159.624298,105.931801 155.091980,105.224983 150.788803,105.925598 
	C136.831375,108.198074 129.948318,116.692055 130.051910,130.655914 
	C130.058090,131.487823 130.049545,132.319839 130.014832,133.609238 
	C122.601128,121.401283 129.202820,106.004265 143.395798,102.886238 
	C150.415848,101.344017 157.273926,101.438324 163.838196,105.704666 
z"/>
<path fill="#F2F6FE" opacity="1.000000" stroke="none" 
	d="
M171.222137,85.689087 
	C162.133240,84.331711 152.822098,83.922691 143.434097,85.801849 
	C139.633987,86.562500 137.934677,88.501511 138.049744,92.647888 
	C134.357269,93.465073 134.876312,90.551003 135.156479,88.723740 
	C135.490707,86.543839 136.433029,82.906097 137.667633,82.657288 
	C148.957199,80.382133 160.306564,79.388550 171.222137,85.689087 
z"/>
<path fill="#F4F7FF" opacity="1.000000" stroke="none" 
	d="
M129.948898,134.233093 
	C130.102692,134.234970 130.278778,134.469940 130.298065,134.803711 
	C130.141251,134.902512 129.971191,134.466187 129.948898,134.233093 
z"/>
<path fill="#E3B2F3" opacity="1.000000" stroke="none" 
	d="
M552.212646,90.967148 
	C553.492798,94.798843 555.657837,98.580582 555.877563,102.472137 
	C556.411255,111.925941 556.181274,121.433548 555.994995,130.914307 
	C555.811890,140.234192 549.514221,145.010117 540.256836,143.109589 
	C539.517578,142.957825 538.437866,142.566483 538.230225,142.016846 
	C536.162842,136.542969 532.762024,139.088943 529.379211,140.290436 
	C524.930908,141.870422 520.452026,143.926239 515.851379,144.365768 
	C510.693481,144.858551 506.230743,142.196152 503.003967,137.031174 
	C502.327728,126.795410 500.618744,117.169510 501.546722,107.804916 
	C502.953613,93.607422 504.897552,92.379883 516.159180,91.106750 
	C516.278992,98.517380 516.356750,105.929024 516.536255,113.338203 
	C516.627808,117.115791 516.524780,120.957405 517.193726,124.646027 
	C517.955383,128.845886 520.357239,131.928268 525.759521,132.324631 
	C528.816284,133.321396 531.542725,134.875381 533.816956,134.374924 
	C538.754639,133.288330 541.056885,129.400497 540.923035,124.363960 
	C540.734436,117.265327 539.707764,110.122742 540.234924,103.088531 
	C540.855957,94.800591 540.197083,90.987411 552.212646,90.967148 
z"/>
<path fill="#F4F4FF" opacity="1.000000" stroke="none" 
	d="
M552.020203,90.641342 
	C540.197083,90.987411 540.855957,94.800591 540.234924,103.088531 
	C539.707764,110.122742 540.734436,117.265327 540.923035,124.363960 
	C541.056885,129.400497 538.754639,133.288330 533.816956,134.374924 
	C531.542725,134.875381 528.816284,133.321396 526.145020,132.365814 
	C535.284363,129.475967 537.303162,126.856743 537.256348,117.334587 
	C537.224487,110.864975 536.834961,104.375504 537.238342,97.934547 
	C537.438232,94.743675 538.475525,89.414215 540.171204,88.964676 
	C543.690063,88.031776 547.901184,89.710480 552.020203,90.641342 
z"/>
<path fill="#F4F5FF" opacity="1.000000" stroke="none" 
	d="
M516.140442,90.685806 
	C504.897552,92.379883 502.953613,93.607422 501.546722,107.804916 
	C500.618744,117.169510 502.327728,126.795410 502.894592,136.709869 
	C501.604401,134.147873 499.264252,131.225555 499.129059,128.204575 
	C498.648834,117.471085 498.725647,106.698875 499.007874,95.952263 
	C499.112457,91.968773 501.727936,88.887825 505.852783,88.543976 
	C509.277313,88.258514 513.393494,85.765793 516.140442,90.685806 
z"/>
<path fill="#88B0EF" opacity="1.000000" stroke="none" 
	d="
M84.472496,67.010559 
	C93.983032,69.986923 100.661095,76.053116 103.283203,85.710884 
	C105.615082,94.299683 102.573967,101.813148 96.542152,107.958565 
	C88.281944,116.374359 78.342110,120.356819 66.388306,118.151825 
	C65.605392,118.007408 64.759880,118.202370 63.074810,118.278946 
	C63.074810,122.272713 63.074554,126.172455 63.074867,130.072205 
	C63.075344,136.055008 63.132263,142.038498 63.060143,148.020432 
	C62.996132,153.329590 60.194675,155.732315 54.202248,154.842285 
	C53.920132,131.803986 53.815830,109.501755 53.921440,87.200516 
	C53.970459,76.849861 59.276279,69.858269 69.122986,67.822464 
	C74.083405,66.796898 79.346352,67.234558 84.472496,67.010559 
M72.013901,105.802521 
	C78.366676,110.476082 92.328140,105.389481 93.849358,97.714638 
	C94.468925,94.588806 94.520981,91.320351 90.203697,89.387985 
	C90.446762,82.077835 75.565132,76.042007 69.852074,77.179939 
	C65.277725,78.091064 62.921246,80.572510 63.011963,85.306931 
	C63.078625,88.785965 63.061001,92.266747 63.066917,95.746773 
	C63.084354,106.002495 62.341423,104.839165 72.013901,105.802521 
z"/>
<path fill="#F2F6FE" opacity="1.000000" stroke="none" 
	d="
M84.161179,66.746246 
	C79.346352,67.234558 74.083405,66.796898 69.122986,67.822464 
	C59.276279,69.858269 53.970459,76.849861 53.921440,87.200516 
	C53.815830,109.501755 53.920132,131.803986 53.965752,154.578705 
	C52.677895,153.310730 50.238674,151.582962 50.218204,149.826996 
	C49.956921,127.410835 49.771679,104.986176 50.141205,82.573143 
	C50.361908,69.186523 60.960049,61.892532 75.715324,64.247826 
	C78.475380,64.688400 81.140778,65.722008 84.161179,66.746246 
z"/>
<path fill="#19DD64" opacity="1.000000" stroke="none" 
	d="
M225.732132,72.208351 
	C226.299789,76.616348 226.867432,81.024345 227.479614,85.778046 
	C229.481674,86.023407 231.566238,86.278877 234.034760,87.108185 
	C237.074692,92.029541 241.393478,89.047485 244.810669,90.039589 
	C246.721497,98.514778 245.606689,100.133698 237.146683,100.704063 
	C234.222641,100.901199 231.274155,100.735435 228.349686,100.735435 
	C228.349686,109.166039 228.048203,116.898468 228.467926,124.591545 
	C228.702591,128.892380 231.192184,132.035431 236.648209,132.523102 
	C240.072784,133.600815 242.974106,134.283936 245.875412,134.967072 
	C247.993042,141.717667 247.498535,142.919495 240.874710,144.414413 
	C231.931137,146.432877 223.074921,147.297241 215.704468,139.175018 
	C215.494934,138.277786 215.308182,138.053207 214.979599,137.946793 
	C214.979599,137.946793 214.968140,138.015793 215.075836,137.560165 
	C215.060944,128.814407 214.935242,120.524338 214.818054,112.234138 
	C214.789917,110.243156 215.156418,107.985466 211.961304,108.307724 
	C211.793518,106.026260 211.625717,103.744797 211.440674,101.228752 
	C208.212906,100.793671 205.155762,100.381584 201.715240,99.451706 
	C201.233032,89.998703 207.897964,89.938530 214.665527,89.635147 
	C214.665527,86.130241 214.755020,83.009918 214.644501,79.896690 
	C214.479599,75.252052 216.408249,72.625206 221.256378,72.506569 
	C222.749847,72.470032 224.240295,72.311188 225.732132,72.208351 
z"/>
<path fill="#E7F3F6" opacity="1.000000" stroke="none" 
	d="
M225.685760,71.902603 
	C224.240295,72.311188 222.749847,72.470032 221.256378,72.506569 
	C216.408249,72.625206 214.479599,75.252052 214.644501,79.896690 
	C214.755020,83.009918 214.665527,86.130241 214.665527,89.635147 
	C207.897964,89.938530 201.233032,89.998703 201.265366,99.334061 
	C196.732193,98.092384 197.721298,94.276039 198.631378,91.372948 
	C199.210632,89.525124 201.622711,87.837303 203.603683,86.958336 
	C205.643951,86.053055 208.158356,86.216301 211.256729,85.807617 
	C211.256729,82.776497 210.876511,79.628578 211.374908,76.626526 
	C211.786789,74.145508 212.756912,70.244019 214.323578,69.771835 
	C217.978363,68.670296 222.529327,67.189362 225.685760,71.902603 
z"/>
<path fill="#EBFAF3" opacity="1.000000" stroke="none" 
	d="
M211.901855,108.751755 
	C215.156418,107.985466 214.789917,110.243156 214.818054,112.234138 
	C214.935242,120.524338 215.060944,128.814407 215.108978,137.571304 
	C214.009583,135.032623 212.322174,132.075974 212.096420,129.011658 
	C211.611954,122.435814 211.881531,115.804428 211.901855,108.751755 
z"/>
<path fill="#DEF7EC" opacity="1.000000" stroke="none" 
	d="
M244.744629,89.674805 
	C241.393478,89.047485 237.074692,92.029541 234.412842,87.290970 
	C237.830841,87.703278 241.254715,88.506645 244.744629,89.674805 
z"/>
<path fill="#F2F6FE" opacity="1.000000" stroke="none" 
	d="
M245.866272,134.611847 
	C242.974106,134.283936 240.072784,133.600815 237.032532,132.573700 
	C239.954025,132.584305 243.943756,128.829391 245.866272,134.611847 
z"/>
<path fill="#EBFAF3" opacity="1.000000" stroke="none" 
	d="
M215.013062,138.160263 
	C215.308182,138.053207 215.494934,138.277786 215.541351,138.854172 
	C215.364273,138.858902 215.198837,138.620880 215.013062,138.160263 
z"/>
<path fill="#FDEEAD" opacity="1.000000" stroke="none" 
	d="
M311.913696,132.971558 
	C312.202728,134.601791 312.549988,136.224228 312.769409,137.863770 
	C313.345795,142.170654 311.276825,144.782104 307.109009,144.930756 
	C293.887878,145.402328 281.091888,144.354599 272.378540,131.943405 
	C270.296692,116.082550 272.508301,102.472542 286.442902,93.048286 
	C294.115967,87.858841 302.695984,86.626793 311.670319,86.894844 
	C311.748474,88.549438 311.848816,90.203346 311.900391,91.858772 
	C312.021576,95.746918 310.497711,97.800972 306.299103,98.542747 
	C301.965088,99.308456 297.564667,100.707695 293.675690,102.748825 
	C287.689880,105.890465 285.197876,111.551682 285.562561,118.172554 
	C285.895569,124.218201 290.200562,126.978714 295.945068,129.104309 
	C301.607391,130.702118 306.760559,131.836838 311.913696,132.971558 
z"/>
<path fill="#F8F8FB" opacity="1.000000" stroke="none" 
	d="
M311.692627,86.540764 
	C302.695984,86.626793 294.115967,87.858841 286.442902,93.048286 
	C272.508301,102.472542 270.296692,116.082550 272.347473,131.602142 
	C266.966919,119.788895 266.791473,107.893982 274.620789,96.946274 
	C282.657776,85.708183 294.724854,83.145988 307.633911,83.388329 
	C309.011292,83.414185 310.355408,85.211273 311.692627,86.540764 
z"/>
<path fill="#F6F7FC" opacity="1.000000" stroke="none" 
	d="
M311.906921,132.578644 
	C306.760559,131.836838 301.607391,130.702118 296.255371,129.279633 
	C300.254059,129.287979 304.470490,129.437698 308.637024,129.974518 
	C309.800354,130.124405 310.816467,131.417206 311.906921,132.578644 
z"/>
<path fill="#5675FE" opacity="1.000000" stroke="none" 
	d="
M152.212433,133.395370 
	C145.851105,132.100449 142.585388,128.223724 143.033768,122.499390 
	C143.441162,117.298302 147.377045,114.028175 153.354568,113.924347 
	C160.739349,113.796082 164.046494,116.443504 164.927490,123.961281 
	C162.656219,131.669128 161.002441,132.801270 152.212433,133.395370 
M151.404129,128.597504 
	C158.981079,129.256989 161.452698,126.786629 158.952560,120.134758 
	C157.353973,119.464989 155.626846,118.051598 154.187042,118.300468 
	C152.049561,118.669930 149.145233,119.735855 148.331818,121.378899 
	C147.228088,123.608337 147.004135,126.965561 151.404129,128.597504 
z"/>
<path fill="#F7F9FF" opacity="1.000000" stroke="none" 
	d="
M152.278595,133.709747 
	C161.002441,132.801270 162.656219,131.669128 164.962372,124.349167 
	C166.002014,125.954529 167.999695,128.099258 167.696167,129.843521 
	C167.312515,132.048050 165.479752,134.701004 163.514160,135.780350 
	C159.700348,137.874573 155.623581,137.445618 152.278595,133.709747 
z"/>
<path fill="#5776FF" opacity="1.000000" stroke="none" 
	d="
M167.021240,106.982338 
	C167.159943,107.128380 167.282288,107.288589 167.404633,107.448799 
	C167.301422,107.407181 167.198212,107.365570 167.035751,107.176437 
	C166.976501,107.028923 167.004868,106.996513 167.021240,106.982338 
z"/>
<path fill="#5675FE" opacity="1.000000" stroke="none" 
	d="
M72.045830,105.052193 
	C62.341423,104.839165 63.084354,106.002495 63.066917,95.746773 
	C63.061001,92.266747 63.078625,88.785965 63.011963,85.306931 
	C62.921246,80.572510 65.277725,78.091064 69.852074,77.179939 
	C75.565132,76.042007 90.446762,82.077835 90.410416,90.054626 
	C90.391098,95.590340 88.436485,99.656418 83.916061,101.602295 
	C80.160248,103.219032 76.017296,103.936417 72.045830,105.052193 
M77.538261,83.303024 
	C69.583824,80.088295 67.916862,81.182190 67.988800,89.562202 
	C68.008705,91.881409 68.168182,94.212723 67.988380,96.516998 
	C67.756981,99.482712 69.199196,100.358665 72.674629,100.167946 
	C74.621506,99.806770 76.626030,99.630768 78.503403,99.046333 
	C82.561378,97.783081 85.949005,95.462425 85.879662,90.789131 
	C85.808952,86.023392 81.934616,84.753265 77.538261,83.303024 
z"/>
<path fill="#F7F9FF" opacity="1.000000" stroke="none" 
	d="
M72.029861,105.427353 
	C76.017296,103.936417 80.160248,103.219032 83.916061,101.602295 
	C88.436485,99.656418 90.391098,95.590340 90.580406,90.348862 
	C94.520981,91.320351 94.468925,94.588806 93.849358,97.714638 
	C92.328140,105.389481 78.366676,110.476082 72.029861,105.427353 
z"/>
<path fill="#9BCCF9" opacity="1.000000" stroke="none" 
	d="
M150.748611,128.169571 
	C147.004135,126.965561 147.228088,123.608337 148.331818,121.378899 
	C149.145233,119.735855 152.049561,118.669930 154.187042,118.300468 
	C155.626846,118.051598 157.353973,119.464989 158.694336,120.598236 
	C154.619186,122.074295 150.988632,123.288422 150.748611,128.169571 
z"/>
<path fill="#F4F7FF" opacity="1.000000" stroke="none" 
	d="
M151.076370,128.383545 
	C150.988632,123.288422 154.619186,122.074295 158.803711,120.948013 
	C161.452698,126.786629 158.981079,129.256989 151.076370,128.383545 
z"/>
<path fill="#F9FAFF" opacity="1.000000" stroke="none" 
	d="
M78.063492,83.846474 
	C81.934616,84.753265 85.808952,86.023392 85.879662,90.789131 
	C85.949005,95.462425 82.561378,97.783081 78.503403,99.046333 
	C76.626030,99.630768 74.621506,99.806770 72.251083,99.708572 
	C71.592827,97.120171 71.259682,94.996574 71.141884,92.861099 
	C70.789444,86.472176 71.817162,85.178032 78.063492,83.846474 
z"/>
<path fill="#8BB2F0" opacity="1.000000" stroke="none" 
	d="
M77.800873,83.574753 
	C71.817162,85.178032 70.789444,86.472176 71.141884,92.861099 
	C71.259682,94.996574 71.592827,97.120171 71.829514,99.679031 
	C69.199196,100.358665 67.756981,99.482712 67.988380,96.516998 
	C68.168182,94.212723 68.008705,91.881409 67.988800,89.562202 
	C67.916862,81.182190 69.583824,80.088295 77.800873,83.574753 
z"/>
</svg>